<?xml version="1.0" encoding="UTF-8"?>
<svg xmlns="http://www.w3.org/2000/svg" xmlns:xlink="http://www.w3.org/1999/xlink" width="266pt" height="240pt" viewBox="0 0 266 240" version="1.1">
<defs>
<filter id="alpha" filterUnits="objectBoundingBox" x="0%" y="0%" width="100%" height="100%">
  <feColorMatrix type="matrix" in="SourceGraphic" values="0 0 0 0 1 0 0 0 0 1 0 0 0 0 1 0 0 0 1 0"/>
</filter>
<mask id="mask0">
  <g filter="url(#alpha)">
<rect x="0" y="0" width="266" height="240" style="fill:rgb(0%,0%,0%);fill-opacity:0.501961;stroke:none;"/>
  </g>
</mask>
<radialGradient id="radial0" gradientUnits="userSpaceOnUse" cx="134.84129" cy="-30.263201" fx="134.84129" fy="-30.263201" r="160.7198" gradientTransform="matrix(-0.00000421902,0.835246,-0.833801,-0.00000421402,108.27688,-10.123589)">
<stop offset="0" style="stop-color:rgb(100%,100%,100%);stop-opacity:1;"/>
<stop offset="1" style="stop-color:rgb(61.176471%,66.666667%,74.117647%);stop-opacity:1;"/>
</radialGradient>
<clipPath id="clip1">
  <rect width="266" height="240"/>
</clipPath>
<g id="surface6" clip-path="url(#clip1)">
<path style=" stroke:none;fill-rule:nonzero;fill:url(#radial0);" d="M 25.386719 51.386719 C 22.804688 55.554688 21.21875 61.894531 21.21875 66.765625 C 21.21875 71.894531 22.550781 77.699219 25.28125 82.46875 C 28.011719 87.234375 32.25 91.648438 37.304688 94.425781 C 37.304688 94.425781 35.027344 93.910156 31.757812 93.910156 C 15.332031 93.910156 0.09375 107.5625 0.09375 124.953125 C 0.09375 142.597656 15.015625 155.738281 32.714844 155.738281 L 118.65625 155.835938 L 175.742188 155.851562 L 236.910156 155.871094 C 248.636719 155.871094 257.542969 147.902344 262.210938 139.296875 C 264.777344 134.566406 265.898438 128.984375 265.898438 125.753906 C 265.898438 113.832031 259.675781 105.15625 253.089844 100.214844 C 248.050781 96.648438 241.75 93.839844 233 93.839844 C 230.09375 93.839844 226.863281 94.460938 226.863281 94.460938 C 231.398438 91.539062 235.316406 88.765625 237.789062 85.515625 C 240.308594 82.203125 242.269531 78.25 243.351562 74.414062 C 244.199219 71.40625 244.449219 68.402344 244.449219 66.269531 C 244.449219 58.933594 242.242188 54.273438 240.785156 51.386719 L 230.480469 47.25 L 190.566406 47.171875 L 131.882812 43.683594 L 41.171875 46.554688 Z M 25.386719 51.386719 "/>
</g>
<mask id="mask1">
  <g filter="url(#alpha)">
<rect x="0" y="0" width="266" height="240" style="fill:rgb(0%,0%,0%);fill-opacity:0.521569;stroke:none;"/>
  </g>
</mask>
<clipPath id="clip2">
  <rect width="266" height="240"/>
</clipPath>
<g id="surface9" clip-path="url(#clip2)">
<path style=" stroke:none;fill-rule:nonzero;fill:rgb(100%,100%,100%);fill-opacity:1;" d="M 25.335938 51.453125 L 240.792969 51.453125 C 238.734375 47.40625 234.738281 43.265625 229.714844 40.007812 C 225.0625 37.175781 219.34375 35.695312 213.589844 35.695312 C 206.324219 35.695312 198.214844 38.027344 191.042969 45.023438 C 193.28125 40.460938 194.082031 35.191406 194.082031 32.839844 C 194.082031 24.742188 192.015625 18.21875 186.191406 11.011719 C 180.652344 4.972656 173.503906 0.109375 162.664062 0.109375 C 146.769531 0.109375 136.546875 11.574219 132.945312 21.320312 C 129.457031 11.476562 119.386719 0.125 103.152344 0.125 C 94.308594 0.125 87.617188 3.460938 81.957031 8.941406 C 76.300781 14.421875 72.109375 22.75 72.109375 31.140625 C 72.109375 39.28125 74.984375 45.414062 74.984375 45.414062 C 68.695312 39.1875 61.402344 35.664062 51.546875 35.664062 C 39.179688 35.664062 29.964844 43.359375 25.335938 51.453125 Z M 25.335938 51.453125 "/>
</g>
<linearGradient id="linear0" gradientUnits="userSpaceOnUse" x1="278.86179" y1="410.7207" x2="271.9122" y2="407.68701" gradientTransform="matrix(1.284327,0,0,-1.24705,-261.649291,595.163366)">
<stop offset="0" style="stop-color:rgb(0%,0%,0%);stop-opacity:1;"/>
<stop offset="1" style="stop-color:rgb(0%,0%,0%);stop-opacity:0;"/>
</linearGradient>
<linearGradient id="linear1" gradientUnits="userSpaceOnUse" x1="178.38429" y1="-81.275398" x2="183.3842" y2="-82.025398" gradientTransform="matrix(0.827316,0,0,0.827551,-8.547659,134.814141)">
<stop offset="0" style="stop-color:rgb(0%,0%,0%);stop-opacity:1;"/>
<stop offset="1" style="stop-color:rgb(0%,0%,0%);stop-opacity:0;"/>
</linearGradient>
<linearGradient id="linear2" gradientUnits="userSpaceOnUse" x1="225.5649" y1="-74.107903" x2="217.06509" y2="-77.857803" gradientTransform="matrix(0.827316,0,0,0.827551,-8.547659,134.814141)">
<stop offset="0" style="stop-color:rgb(0%,0%,0%);stop-opacity:1;"/>
<stop offset="1" style="stop-color:rgb(0%,0%,0%);stop-opacity:0;"/>
</linearGradient>
<linearGradient id="linear3" gradientUnits="userSpaceOnUse" x1="160.06351" y1="-106.4521" x2="163.61031" y2="-106.4521" gradientTransform="matrix(0.82731,0,0,0.827545,2.711015,153.140576)">
<stop offset="0" style="stop-color:rgb(100%,100%,100%);stop-opacity:1;"/>
<stop offset="1" style="stop-color:rgb(100%,100%,100%);stop-opacity:0;"/>
</linearGradient>
<linearGradient id="linear4" gradientUnits="userSpaceOnUse" x1="337.2012" y1="410.27341" x2="342.32571" y2="407.92719" gradientTransform="matrix(1.284327,0,0,-1.24705,-261.649291,595.163366)">
<stop offset="0" style="stop-color:rgb(0%,0%,0%);stop-opacity:1;"/>
<stop offset="1" style="stop-color:rgb(0%,0%,0%);stop-opacity:0;"/>
</linearGradient>
<linearGradient id="linear5" gradientUnits="userSpaceOnUse" x1="252.0098" y1="349.61621" x2="252.0098" y2="361.22919" gradientTransform="matrix(1.284327,0,0,-1.24705,-261.649291,595.163366)">
<stop offset="0" style="stop-color:rgb(0%,0%,0%);stop-opacity:1;"/>
<stop offset="0.5" style="stop-color:rgb(0%,0%,0%);stop-opacity:0.211765;"/>
<stop offset="1" style="stop-color:rgb(0%,0%,0%);stop-opacity:0;"/>
</linearGradient>
<linearGradient id="linear6" gradientUnits="userSpaceOnUse" x1="362.5361" y1="351.6279" x2="362.5361" y2="359.83981" gradientTransform="matrix(1.284327,0,0,-1.24705,-261.649291,595.163366)">
<stop offset="0" style="stop-color:rgb(0%,0%,0%);stop-opacity:1;"/>
<stop offset="0.5714" style="stop-color:rgb(0%,0%,0%);stop-opacity:0.227451;"/>
<stop offset="1" style="stop-color:rgb(0%,0%,0%);stop-opacity:0;"/>
</linearGradient>
<linearGradient id="linear7" gradientUnits="userSpaceOnUse" x1="249.0166" y1="385.17969" x2="255.2972" y2="393.9725" gradientTransform="matrix(1.284327,0,0,-1.24705,-261.649291,595.163366)">
<stop offset="0" style="stop-color:rgb(0%,0%,0%);stop-opacity:1;"/>
<stop offset="1" style="stop-color:rgb(0%,0%,0%);stop-opacity:0;"/>
</linearGradient>
<linearGradient id="linear8" gradientUnits="userSpaceOnUse" x1="271.31299" y1="418.35059" x2="277.1207" y2="420.81409" gradientTransform="matrix(1.284327,0,0,-1.24705,-261.649291,595.163366)">
<stop offset="0" style="stop-color:rgb(0%,0%,0%);stop-opacity:1;"/>
<stop offset="1" style="stop-color:rgb(0%,0%,0%);stop-opacity:0;"/>
</linearGradient>
<linearGradient id="linear9" gradientUnits="userSpaceOnUse" x1="87.6045" y1="-106.4551" x2="93.857903" y2="-106.4551" gradientTransform="matrix(0.827313,0,0,0.827548,2.710512,153.140683)">
<stop offset="0" style="stop-color:rgb(100%,100%,100%);stop-opacity:1;"/>
<stop offset="1" style="stop-color:rgb(100%,100%,100%);stop-opacity:0;"/>
</linearGradient>
<linearGradient id="linear10" gradientUnits="userSpaceOnUse" x1="234.1548" y1="-80.666496" x2="231.92" y2="-80.903" gradientTransform="matrix(0.827313,0,0,0.827548,-8.547122,134.814096)">
<stop offset="0" style="stop-color:rgb(100%,100%,100%);stop-opacity:1;"/>
<stop offset="1" style="stop-color:rgb(100%,100%,100%);stop-opacity:0;"/>
</linearGradient>
<linearGradient id="linear11" gradientUnits="userSpaceOnUse" x1="304.0947" y1="423.19919" x2="299.53961" y2="423.78571" gradientTransform="matrix(1.284327,0,0,-1.24705,-261.649291,595.163366)">
<stop offset="0" style="stop-color:rgb(0%,0%,0%);stop-opacity:1;"/>
<stop offset="1" style="stop-color:rgb(0%,0%,0%);stop-opacity:0;"/>
</linearGradient>
<linearGradient id="linear12" gradientUnits="userSpaceOnUse" x1="305.4014" y1="425.0986" x2="303.3988" y2="425.0986" gradientTransform="matrix(1.284327,0,0,-1.24705,-261.649291,595.163366)">
<stop offset="0" style="stop-color:rgb(100%,100%,100%);stop-opacity:1;"/>
<stop offset="1" style="stop-color:rgb(100%,100%,100%);stop-opacity:0;"/>
</linearGradient>
<linearGradient id="linear13" gradientUnits="userSpaceOnUse" x1="129.041" y1="-186.0815" x2="140.54849" y2="-85.7463" gradientTransform="matrix(0.827313,0,0,0.827548,-8.547122,134.814106)">
<stop offset="0" style="stop-color:rgb(100%,100%,100%);stop-opacity:1;"/>
<stop offset="1" style="stop-color:rgb(100%,100%,100%);stop-opacity:0;"/>
</linearGradient>
<linearGradient id="linear14" gradientUnits="userSpaceOnUse" x1="211.707" y1="339.5488" x2="243.59219" y2="364.88821" gradientTransform="matrix(1.284327,0,0,-1.24705,-261.649291,595.163366)">
<stop offset="0" style="stop-color:rgb(0%,0%,0%);stop-opacity:1;"/>
<stop offset="0.5056" style="stop-color:rgb(0%,0%,0%);stop-opacity:0.192157;"/>
<stop offset="0.6912" style="stop-color:rgb(0%,0%,0%);stop-opacity:0.0666667;"/>
<stop offset="1" style="stop-color:rgb(0%,0%,0%);stop-opacity:0;"/>
</linearGradient>
<linearGradient id="linear15" gradientUnits="userSpaceOnUse" x1="402.8291" y1="339.54691" x2="370.944" y2="364.8862" gradientTransform="matrix(1.284327,0,0,-1.24705,-261.649291,595.163366)">
<stop offset="0" style="stop-color:rgb(0%,0%,0%);stop-opacity:1;"/>
<stop offset="0.5056" style="stop-color:rgb(0%,0%,0%);stop-opacity:0.192157;"/>
<stop offset="0.6912" style="stop-color:rgb(0%,0%,0%);stop-opacity:0.0666667;"/>
<stop offset="1" style="stop-color:rgb(0%,0%,0%);stop-opacity:0;"/>
</linearGradient>
<linearGradient id="linear16" gradientUnits="userSpaceOnUse" x1="363.38571" y1="388.3613" x2="358.5545" y2="394.99731" gradientTransform="matrix(1.284327,0,0,-1.24705,-261.649291,595.163366)">
<stop offset="0" style="stop-color:rgb(0%,0%,0%);stop-opacity:1;"/>
<stop offset="1" style="stop-color:rgb(0%,0%,0%);stop-opacity:0;"/>
</linearGradient>
<linearGradient id="linear17" gradientUnits="userSpaceOnUse" x1="226.002" y1="433.01761" x2="228.2399" y2="431.8042" gradientTransform="matrix(1.284327,0,0,-1.24705,-261.649291,595.163366)">
<stop offset="0" style="stop-color:rgb(100%,100%,100%);stop-opacity:1;"/>
<stop offset="1" style="stop-color:rgb(100%,100%,100%);stop-opacity:0;"/>
</linearGradient>
<mask id="mask2">
  <g filter="url(#alpha)">
<rect x="0" y="0" width="266" height="240" style="fill:rgb(0%,0%,0%);fill-opacity:0.690196;stroke:none;"/>
  </g>
</mask>
<linearGradient id="linear18" gradientUnits="userSpaceOnUse" x1="26.5576" y1="-42.459499" x2="29.117599" y2="-40.356602" gradientTransform="matrix(-0.827313,0,0,0.827548,269.14803,135.495972)">
<stop offset="0" style="stop-color:rgb(100%,100%,100%);stop-opacity:1;"/>
<stop offset="1" style="stop-color:rgb(100%,100%,100%);stop-opacity:0;"/>
</linearGradient>
<clipPath id="clip3">
  <rect width="266" height="240"/>
</clipPath>
<g id="surface12" clip-path="url(#clip3)">
<path style=" stroke:none;fill-rule:nonzero;fill:url(#linear18);" d="M 234.816406 100.609375 C 238.582031 100.5625 244.386719 101.398438 246.527344 102.199219 C 252.992188 105.003906 259.9375 114.140625 259.207031 117.535156 C 246.007812 113.351562 225.136719 113.582031 212.011719 119.953125 C 191.6875 130.433594 170.808594 141.320312 153.351562 150.390625 C 173.804688 136.207031 199.160156 119.285156 221.347656 104.304688 C 225.105469 101.949219 229.972656 100.667969 234.816406 100.609375 Z M 234.816406 100.609375 "/>
</g>
<mask id="mask3">
  <g filter="url(#alpha)">
<rect x="0" y="0" width="266" height="240" style="fill:rgb(0%,0%,0%);fill-opacity:0.74902;stroke:none;"/>
  </g>
</mask>
<linearGradient id="linear19" gradientUnits="userSpaceOnUse" x1="151.5981" y1="7.9751" x2="-13.4019" y2="-46.024899" gradientTransform="matrix(-0.827313,0,0,0.827548,267.778662,134.814106)">
<stop offset="0" style="stop-color:rgb(100%,100%,100%);stop-opacity:0.74902;"/>
<stop offset="1" style="stop-color:rgb(100%,100%,100%);stop-opacity:0;"/>
</linearGradient>
<clipPath id="clip4">
  <rect width="266" height="240"/>
</clipPath>
<g id="surface15" clip-path="url(#clip4)">
<path style=" stroke:none;fill-rule:nonzero;fill:url(#linear19);" d="M 233.445312 99.929688 C 237.210938 99.882812 240.972656 100.566406 244.175781 102.046875 C 250.558594 105.085938 254.890625 109.554688 256.496094 113.535156 C 256.875 114.308594 256.828125 116.078125 257.105469 116.902344 C 243.457031 105.921875 228.214844 110.597656 210.640625 119.273438 C 190.316406 129.753906 169.4375 140.636719 151.976562 149.710938 C 172.433594 135.527344 197.789062 118.605469 219.972656 103.625 C 223.734375 101.269531 228.601562 99.988281 233.445312 99.929688 Z M 233.445312 99.929688 "/>
</g>
<mask id="mask4">
  <g filter="url(#alpha)">
<rect x="0" y="0" width="266" height="240" style="fill:rgb(0%,0%,0%);fill-opacity:0.690196;stroke:none;"/>
  </g>
</mask>
<linearGradient id="linear20" gradientUnits="userSpaceOnUse" x1="49.873501" y1="-12.2871" x2="-8.876" y2="-12.5371" gradientTransform="matrix(0.827313,0,0,0.827548,-8.547122,134.814106)">
<stop offset="0" style="stop-color:rgb(100%,100%,100%);stop-opacity:0.74902;"/>
<stop offset="1" style="stop-color:rgb(100%,100%,100%);stop-opacity:0;"/>
</linearGradient>
<clipPath id="clip5">
  <rect width="266" height="240"/>
</clipPath>
<g id="surface18" clip-path="url(#clip5)">
<path style=" stroke:none;fill-rule:nonzero;fill:url(#linear20);" d="M 32.714844 99.929688 C 28.949219 99.882812 25.1875 100.566406 21.984375 102.046875 C 15.144531 104.703125 7.136719 113.234375 8.699219 116.851562 C 21.898438 112.667969 42.394531 112.898438 55.519531 119.273438 C 75.84375 129.753906 96.722656 140.636719 114.179688 149.710938 C 93.726562 135.527344 68.371094 118.605469 46.183594 103.625 C 42.425781 101.269531 37.554688 99.988281 32.714844 99.929688 Z M 32.714844 99.929688 "/>
</g>
<linearGradient id="linear21" gradientUnits="userSpaceOnUse" x1="100.1543" y1="-143.22951" x2="94.668503" y2="-71.1838" gradientTransform="matrix(0.827313,0,0,0.827548,-8.547122,134.814106)">
<stop offset="0" style="stop-color:rgb(100%,100%,100%);stop-opacity:1;"/>
<stop offset="1" style="stop-color:rgb(100%,100%,100%);stop-opacity:0;"/>
</linearGradient>
<linearGradient id="linear22" gradientUnits="userSpaceOnUse" x1="216.373" y1="-138.522" x2="98.615799" y2="-58.7981" gradientTransform="matrix(0.827313,0,0,0.827548,-8.485912,134.814106)">
<stop offset="0" style="stop-color:rgb(100%,100%,100%);stop-opacity:1;"/>
<stop offset="1" style="stop-color:rgb(100%,100%,100%);stop-opacity:0;"/>
</linearGradient>
<linearGradient id="linear23" gradientUnits="userSpaceOnUse" x1="91.778801" y1="-143.23" x2="86.292999" y2="-71.183502" gradientTransform="matrix(-0.827313,0,0,0.827548,267.448317,134.814106)">
<stop offset="0" style="stop-color:rgb(100%,100%,100%);stop-opacity:1;"/>
<stop offset="1" style="stop-color:rgb(100%,100%,100%);stop-opacity:0;"/>
</linearGradient>
<linearGradient id="linear24" gradientUnits="userSpaceOnUse" x1="208.0029" y1="-138.5239" x2="90.241798" y2="-58.797501" gradientTransform="matrix(-0.827313,0,0,0.827548,267.460526,134.814106)">
<stop offset="0" style="stop-color:rgb(100%,100%,100%);stop-opacity:1;"/>
<stop offset="1" style="stop-color:rgb(100%,100%,100%);stop-opacity:0;"/>
</linearGradient>
<mask id="mask5">
  <g filter="url(#alpha)">
<rect x="0" y="0" width="266" height="240" style="fill:rgb(0%,0%,0%);fill-opacity:0.690196;stroke:none;"/>
  </g>
</mask>
<linearGradient id="linear25" gradientUnits="userSpaceOnUse" x1="34.932598" y1="-42.4585" x2="37.492699" y2="-40.355598" gradientTransform="matrix(0.827313,0,0,0.827548,-10.13584,135.495972)">
<stop offset="0" style="stop-color:rgb(100%,100%,100%);stop-opacity:1;"/>
<stop offset="1" style="stop-color:rgb(100%,100%,100%);stop-opacity:0;"/>
</linearGradient>
<clipPath id="clip6">
  <rect width="266" height="240"/>
</clipPath>
<g id="surface21" clip-path="url(#clip6)">
<path style=" stroke:none;fill-rule:nonzero;fill:url(#linear25);" d="M 31.125 100.609375 C 27.359375 100.5625 21.554688 101.398438 19.414062 102.199219 C 12.949219 105.003906 6.003906 114.140625 6.734375 117.535156 C 19.929688 113.351562 40.804688 113.582031 53.929688 119.953125 C 74.253906 130.433594 95.132812 141.320312 112.589844 150.390625 C 92.136719 136.207031 66.78125 119.285156 44.59375 104.304688 C 40.835938 101.949219 35.96875 100.667969 31.125 100.609375 Z M 31.125 100.609375 "/>
</g>
<mask id="mask6">
  <g filter="url(#alpha)">
<rect x="0" y="0" width="266" height="240" style="fill:rgb(0%,0%,0%);fill-opacity:0.690196;stroke:none;"/>
  </g>
</mask>
<linearGradient id="linear26" gradientUnits="userSpaceOnUse" x1="159.832" y1="8.5713" x2="-4.918" y2="-46.178699" gradientTransform="matrix(0.827313,0,0,0.827548,-8.547122,134.814106)">
<stop offset="0" style="stop-color:rgb(100%,100%,100%);stop-opacity:0.74902;"/>
<stop offset="1" style="stop-color:rgb(100%,100%,100%);stop-opacity:0;"/>
</linearGradient>
<clipPath id="clip7">
  <rect width="266" height="240"/>
</clipPath>
<g id="surface24" clip-path="url(#clip7)">
<path style=" stroke:none;fill-rule:nonzero;fill:url(#linear26);" d="M 32.714844 99.929688 C 28.949219 99.882812 25.1875 100.566406 21.984375 102.046875 C 15.144531 104.703125 7.136719 113.234375 8.699219 116.851562 C 21.898438 112.667969 42.394531 112.898438 55.519531 119.273438 C 75.84375 129.753906 96.722656 140.636719 114.179688 149.710938 C 93.726562 135.527344 68.371094 118.605469 46.183594 103.625 C 42.425781 101.269531 37.554688 99.988281 32.714844 99.929688 Z M 32.714844 99.929688 "/>
</g>
<linearGradient id="linear27" gradientUnits="userSpaceOnUse" x1="388.46091" y1="433.0166" x2="386.22281" y2="431.80319" gradientTransform="matrix(1.284327,0,0,-1.24705,-261.649291,595.163366)">
<stop offset="0" style="stop-color:rgb(100%,100%,100%);stop-opacity:1;"/>
<stop offset="1" style="stop-color:rgb(100%,100%,100%);stop-opacity:0;"/>
</linearGradient>
<linearGradient id="linear28" gradientUnits="userSpaceOnUse" x1="285.8013" y1="367.74609" x2="269.26721" y2="389.46771" gradientTransform="matrix(-1.284327,0,0,-1.24705,520.579318,595.163366)">
<stop offset="0" style="stop-color:rgb(100%,100%,100%);stop-opacity:1;"/>
<stop offset="1" style="stop-color:rgb(100%,100%,100%);stop-opacity:0;"/>
</linearGradient>
<linearGradient id="linear29" gradientUnits="userSpaceOnUse" x1="292.01459" y1="367.46881" x2="274.91119" y2="389.65961" gradientTransform="matrix(1.284327,0,0,-1.24705,-261.649291,595.163366)">
<stop offset="0" style="stop-color:rgb(100%,100%,100%);stop-opacity:1;"/>
<stop offset="1" style="stop-color:rgb(100%,100%,100%);stop-opacity:0;"/>
</linearGradient>
<mask id="mask7">
  <g filter="url(#alpha)">
<rect x="0" y="0" width="266" height="240" style="fill:rgb(0%,0%,0%);fill-opacity:0.501961;stroke:none;"/>
  </g>
</mask>
<linearGradient id="linear30" gradientUnits="userSpaceOnUse" x1="120.668" y1="-186.082" x2="132.1758" y2="-85.744301" gradientTransform="matrix(-0.827316,0,0,0.827551,267.426106,134.814481)">
<stop offset="0" style="stop-color:rgb(100%,100%,100%);stop-opacity:1;"/>
<stop offset="1" style="stop-color:rgb(100%,100%,100%);stop-opacity:0;"/>
</linearGradient>
<clipPath id="clip8">
  <rect width="266" height="240"/>
</clipPath>
<g id="surface27" clip-path="url(#clip8)">
<path style=" stroke:none;fill-rule:nonzero;fill:url(#linear30);" d="M 162.011719 5.84375 C 158.679688 5.886719 155.359375 6.566406 152.316406 7.886719 C 147.363281 10.035156 142.695312 14.042969 139.75 18.929688 C 137.792969 22.644531 136.429688 26.75 136.207031 31.1875 L 149.832031 31.1875 C 152.542969 31.1875 153.035156 32.722656 153.03125 33.457031 C 153.023438 34.800781 150.238281 35.980469 148.851562 36.464844 C 147.601562 36.902344 146.457031 37.507812 145.386719 38.222656 C 163.746094 39.625 177.730469 38.636719 187.011719 35.066406 C 188.316406 26.921875 186.34375 19.109375 180.496094 13.242188 C 176.046875 8.636719 169.773438 6.125 163.433594 5.871094 C 162.957031 5.851562 162.484375 5.835938 162.011719 5.84375 Z M 162.011719 5.84375 "/>
</g>
</defs>
<g id="surface1">
<path style=" stroke:none;fill-rule:nonzero;fill:rgb(100%,100%,100%);fill-opacity:1;" d="M 103.195312 0.152344 C 85.269531 -0.304688 69.9375 17.453125 72.339844 35.128906 C 72.6875 38.722656 73.691406 42.136719 74.964844 45.496094 C 64.878906 34.40625 46.09375 32.148438 34.101562 41.582031 C 24.398438 48.667969 19.199219 61.476562 21.929688 73.320312 C 23.59375 82.234375 29.5 89.988281 37.367188 94.445312 C 26.21875 92.261719 14.40625 96.804688 7.347656 105.578125 C 0.753906 113.15625 -1.636719 124.164062 1.445312 133.789062 C 5.304688 147.359375 19.445312 156.160156 33.296875 155.722656 C 101.359375 155.753906 169.421875 155.941406 237.484375 155.875 C 249.882812 155.472656 260.546875 145.996094 264.257812 134.476562 C 268.785156 122.179688 263.507812 107.753906 253.066406 100.289062 C 245.6875 94.546875 235.851562 92.753906 226.746094 94.476562 C 231.664062 91.277344 236.714844 87.980469 239.621094 82.738281 C 247.539062 70.703125 245.613281 52.789062 234.324219 43.523438 C 224.535156 34.328125 208.621094 33.191406 197.285156 40.195312 C 194.949219 41.582031 192.792969 43.265625 190.921875 45.171875 C 196.0625 35.191406 194.742188 22.597656 188.179688 13.574219 C 182.226562 4.777344 171.625 -0.625 160.941406 0.191406 C 148.390625 0.539062 137.171875 9.746094 132.976562 21.355469 C 128.660156 9.109375 116.40625 -0.335938 103.195312 0.152344 Z M 103.195312 0.152344 "/>
<use xlink:href="#surface6" mask="url(#mask0)"/>
<use xlink:href="#surface9" mask="url(#mask1)"/>
<path style="fill-rule:nonzero;fill:rgb(100%,100%,100%);fill-opacity:1;stroke-width:0.841049;stroke-linecap:butt;stroke-linejoin:miter;stroke:rgb(61.176471%,66.666667%,74.117647%);stroke-opacity:1;stroke-miterlimit:4;" d="M 117.67853 362.772083 C 59.084774 362.683998 5.557395 416.842174 11.32866 476.256144 C 14.001358 525.701722 55.516282 568.379363 104.535319 573.66452 C 138.164316 576.762209 172.042962 573.752606 205.774756 574.838999 C 294.135314 574.927085 382.495873 574.985809 470.856431 575.029852 C 374.99176 510.873921 280.022883 445.161805 183.658917 381.82801 C 164.641645 368.20405 138.164316 362.390378 117.67853 362.772083 Z M 117.67853 362.772083 " transform="matrix(0.266,0,0,0.266075,-0.056392,0.135443)"/>
<path style="fill-rule:nonzero;fill:rgb(100%,100%,100%);fill-opacity:1;stroke-width:0.841049;stroke-linecap:butt;stroke-linejoin:miter;stroke:rgb(61.176471%,66.666667%,74.117647%);stroke-opacity:1;stroke-miterlimit:4;" d="M 878.721839 362.728041 C 847.031281 361.626966 818.204328 377.54116 794.003198 396.450277 C 705.804176 455.967015 617.634524 515.542476 529.420817 575.029852 C 651.013874 574.545379 772.650987 575.690497 894.214674 574.10495 C 943.498044 568.863836 986.67239 526.230238 989.051385 476.109334 C 993.824059 422.538398 950.708453 371.933022 898.19435 364.254864 C 891.776939 363.139108 885.242046 362.581231 878.721839 362.728041 Z M 878.721839 362.728041 " transform="matrix(0.266,0,0,0.266075,-0.056392,0.135443)"/>
<path style="fill-rule:nonzero;fill:rgb(100%,100%,100%);fill-opacity:1;stroke-width:0.841049;stroke-linecap:butt;stroke-linejoin:miter;stroke:rgb(61.176471%,66.666667%,74.117647%);stroke-opacity:1;stroke-miterlimit:4;" d="M 386.813307 10.222764 C 334.328575 9.870421 287.996921 54.089566 282.622155 105.70793 C 278.70122 131.854775 286.087851 149.956437 299.069525 182.181213 C 344.784403 286.739231 389.92656 389.843831 439.004337 492.875026 C 463.572596 374.649005 474.674571 254.162112 494.617007 135.172679 C 495.762449 127.934951 496.672928 122.561708 496.672928 116.351649 C 495.82119 70.047803 462.95582 26.577388 418.239532 14.215994 C 408.033352 11.353201 397.445357 9.914464 386.813307 10.222764 Z M 386.813307 10.222764 " transform="matrix(0.266,0,0,0.266075,-0.056392,0.135443)"/>
<path style="fill-rule:nonzero;fill:rgb(100%,100%,100%);fill-opacity:1;stroke-width:0.841049;stroke-linecap:butt;stroke-linejoin:miter;stroke:rgb(61.176471%,66.666667%,74.117647%);stroke-opacity:1;stroke-miterlimit:4;" d="M 607.898268 10.266807 C 552.094691 10.854047 503.428098 61.312613 503.721801 116.982931 L 503.736486 125.028114 L 559.011398 125.028114 C 560.861727 124.998752 563.314147 125.70344 559.275731 127.303668 C 540.508107 135.216722 522.92998 148.649829 514.324481 167.162559 C 511.81332 172.785378 511.960171 173.98922 512.312615 177.762234 C 515.411182 211.102765 522.92998 243.812013 527.056508 277.064458 C 537.835409 345.521919 546.822722 414.41981 559.598804 482.466204 L 562.168706 493.785248 L 569.158838 478.105949 C 580.951015 448.597157 596.150147 419.939863 608.735322 390.504476 C 642.746134 314.662476 676.25765 238.453451 708.755891 161.950807 C 711.913199 154.434139 716.127838 144.172127 716.950206 139.048461 C 728.140292 82.570688 687.873605 20.08839 629.76446 11.79363 C 622.55405 10.531065 615.240844 9.973188 607.898268 10.266807 Z M 607.898268 10.266807 " transform="matrix(0.266,0,0,0.266075,-0.056392,0.135443)"/>
<path style="fill-rule:nonzero;fill:rgb(100%,100%,100%);fill-opacity:1;stroke-width:0.841049;stroke-linecap:butt;stroke-linejoin:miter;stroke:rgb(61.176471%,66.666667%,74.117647%);stroke-opacity:1;stroke-miterlimit:4;" d="M 803.812879 143.731697 C 776.30759 143.276586 749.74215 154.669035 729.961251 173.240489 C 716.744614 185.645926 713.058641 193.089189 701.134298 218.707518 C 652.350223 326.480674 603.668945 434.297872 554.811445 542.026984 C 658.136173 475.111027 759.698683 405.860792 860.600361 335.333311 C 873.229592 326.700888 877.826045 322.957236 884.507789 315.32312 C 913.349427 282.217486 918.00462 229.307194 892.966436 192.355139 C 873.905109 162.655494 839.585909 142.762752 803.812879 143.731697 Z M 803.812879 143.731697 " transform="matrix(0.266,0,0,0.266075,-0.056392,0.135443)"/>
<path style="fill-rule:nonzero;fill:rgb(100%,100%,100%);fill-opacity:1;stroke-width:0.841049;stroke-linecap:butt;stroke-linejoin:miter;stroke:rgb(61.176471%,66.666667%,74.117647%);stroke-opacity:1;stroke-miterlimit:4;" d="M 193.835727 143.790421 C 138.986685 143.217862 90.790017 192.634078 90.65785 247.188641 C 88.836891 285.931776 107.325498 319.844866 144.097118 343.554666 C 243.207208 411.45425 344.06483 476.681893 445.421748 541.175487 C 393.715329 428.469518 343.756442 314.882691 291.30108 202.543747 C 288.745863 196.451136 285.838203 191.077893 282.166915 186.159761 C 261.82798 159.043971 227.875909 142.689347 193.835727 143.790421 Z M 193.835727 143.790421 " transform="matrix(0.266,0,0,0.266075,-0.056392,0.135443)"/>
<path style=" stroke:none;fill-rule:nonzero;fill:rgb(80.784314%,0%,7.843137%);fill-opacity:1;" d="M 104.316406 4.644531 C 97.191406 4.421875 89.953125 7.019531 84.953125 12.195312 C 77.761719 19.414062 74.75 29.949219 77.96875 40.046875 C 90.546875 68.609375 102.6875 97.390625 116.027344 125.597656 C 121.980469 96.050781 124.515625 65.414062 129.964844 35.625 C 130.949219 29.113281 129.308594 23.171875 126.578125 17.988281 C 123.566406 12.996094 118.785156 8.910156 113.726562 6.714844 C 110.765625 5.429688 107.554688 4.746094 104.316406 4.644531 Z M 104.316406 4.644531 "/>
<path style=" stroke:none;fill-rule:nonzero;fill:rgb(100%,40.392157%,7.843137%);fill-opacity:1;" d="M 75.472656 53.671875 L 114.300781 139.378906 C 87.734375 122.429688 60.53125 104.757812 34.800781 87 C 26.832031 80.359375 24.183594 69.347656 26.882812 59.257812 C 28.902344 51.699219 35.230469 44.632812 42.726562 41.839844 C 55.035156 37.367188 68.917969 42.113281 75.472656 53.671875 "/>
<path style=" stroke:none;fill-rule:nonzero;fill:url(#linear0);" d="M 75.472656 53.671875 L 114.300781 139.378906 C 87.734375 122.429688 60.53125 104.757812 34.800781 87 C 26.832031 80.359375 24.183594 69.347656 26.882812 59.257812 C 28.902344 51.699219 35.230469 44.632812 42.726562 41.839844 C 55.035156 37.367188 68.917969 42.113281 75.472656 53.671875 "/>
<path style=" stroke:none;fill-rule:nonzero;fill:rgb(98.039216%,73.72549%,7.45098%);fill-opacity:1;" d="M 6.949219 114.332031 C 2.886719 122.621094 4.472656 134.007812 10.261719 141.070312 C 16.011719 147.847656 23.699219 151.519531 32.699219 151.28125 L 119.339844 151.351562 L 46.761719 102.34375 C 39.683594 97.910156 28.898438 97.101562 21.148438 100.6875 C 15.179688 102.9375 9.558594 108.640625 6.949219 114.332031 "/>
<path style=" stroke:none;fill-rule:nonzero;fill:rgb(35.294118%,8.235294%,40%);fill-opacity:1;" d="M 161.6875 4.644531 C 158.449219 4.746094 155.210938 5.429688 152.25 6.714844 C 147.1875 8.910156 142.410156 12.996094 139.398438 17.988281 C 137.230469 22.097656 135.753906 26.675781 135.726562 31.644531 L 149.300781 31.644531 C 151.78125 31.644531 152.523438 32.617188 152.523438 33.441406 C 152.46875 34.246094 151.105469 35.011719 150.285156 35.339844 C 149.992188 35.441406 149.714844 35.542969 149.429688 35.652344 C 143.679688 37.882812 139.667969 42.390625 138.082031 45.683594 L 138.03125 45.789062 C 137.9375 45.996094 137.894531 46.238281 137.875 46.488281 C 137.851562 46.757812 137.847656 47.011719 137.875 47.261719 L 137.898438 47.546875 C 137.90625 47.570312 137.894531 47.597656 137.898438 47.625 L 138.03125 48.425781 L 138.519531 51.660156 L 142.0625 74.441406 L 142.0625 74.492188 C 142.085938 74.648438 142.09375 74.804688 142.113281 74.960938 C 142.179688 75.441406 142.253906 75.925781 142.320312 76.40625 L 142.347656 76.5625 C 144.296875 90.882812 146.261719 105.199219 148.914062 119.285156 C 148.925781 119.347656 148.929688 119.40625 148.941406 119.464844 L 149.484375 123.035156 C 149.652344 123.886719 149.796875 124.75 149.976562 125.597656 C 149.984375 125.578125 149.992188 125.5625 150 125.546875 C 163.335938 97.359375 175.460938 68.585938 188.03125 40.046875 C 191.253906 29.949219 188.246094 19.386719 181.050781 12.167969 C 176.050781 6.996094 168.808594 4.421875 161.6875 4.644531 Z M 161.6875 4.644531 "/>
<path style=" stroke:none;fill-rule:nonzero;fill:url(#linear1);" d="M 161.675781 4.652344 C 158.4375 4.753906 155.199219 5.4375 152.238281 6.722656 C 147.179688 8.917969 142.398438 13.007812 139.386719 17.996094 C 137.222656 22.109375 135.742188 26.6875 135.714844 31.652344 L 149.289062 31.652344 C 151.125 31.984375 152.972656 32.855469 152.417969 33.929688 C 152.414062 33.9375 152.421875 33.945312 152.417969 33.953125 C 152.402344 33.984375 152.386719 34.003906 152.367188 34.03125 C 152.308594 34.136719 152.21875 34.242188 152.109375 34.34375 C 152.023438 34.417969 151.933594 34.5 151.824219 34.574219 C 151.636719 34.710938 151.421875 34.824219 151.152344 34.964844 C 151.140625 34.96875 151.136719 34.984375 151.125 34.988281 C 150.882812 35.109375 150.585938 35.226562 150.273438 35.351562 C 149.980469 35.449219 149.703125 35.550781 149.417969 35.660156 C 143.667969 37.894531 139.65625 42.402344 138.070312 45.695312 L 138.019531 45.800781 C 137.925781 46.007812 137.882812 46.246094 137.863281 46.496094 C 137.839844 46.769531 137.835938 47.023438 137.863281 47.273438 L 137.890625 47.558594 C 137.894531 47.582031 137.882812 47.609375 137.890625 47.636719 L 138.019531 48.4375 L 138.511719 51.667969 L 142.050781 74.503906 C 142.136719 75.144531 142.222656 75.78125 142.308594 76.417969 L 149.472656 123.046875 C 149.640625 123.898438 149.785156 124.757812 149.964844 125.605469 C 149.972656 125.589844 149.980469 125.574219 149.988281 125.554688 C 163.324219 97.367188 175.449219 68.597656 188.019531 40.058594 C 191.242188 29.957031 188.234375 19.398438 181.039062 12.179688 C 176.039062 7.003906 168.800781 4.429688 161.675781 4.652344 Z M 161.675781 4.652344 "/>
<path style=" stroke:none;fill-rule:nonzero;fill:url(#linear2);" d="M 161.675781 4.652344 C 158.4375 4.753906 155.199219 5.4375 152.238281 6.722656 C 147.179688 8.917969 142.398438 13.007812 139.386719 17.996094 C 137.222656 22.109375 135.742188 26.6875 135.714844 31.652344 L 149.277344 31.347656 C 151.207031 31.347656 152.972656 32.855469 152.417969 33.929688 C 152.414062 33.9375 152.421875 33.945312 152.417969 33.953125 C 152.402344 33.984375 152.386719 34.003906 152.367188 34.03125 C 152.308594 34.136719 152.21875 34.242188 152.109375 34.34375 C 152.023438 34.417969 151.933594 34.5 151.824219 34.574219 C 151.636719 34.710938 151.421875 34.824219 151.152344 34.964844 C 151.140625 34.96875 151.136719 34.984375 151.125 34.988281 C 150.882812 35.109375 150.585938 35.226562 150.273438 35.351562 C 149.980469 35.449219 149.703125 35.550781 149.417969 35.660156 C 143.667969 37.894531 139.65625 42.402344 138.070312 45.695312 L 138.019531 45.800781 C 137.925781 46.007812 137.882812 46.246094 137.863281 46.496094 C 137.839844 46.769531 137.835938 47.023438 137.863281 47.273438 L 137.890625 47.558594 C 137.894531 47.582031 137.882812 47.609375 137.890625 47.636719 L 138.019531 48.4375 L 138.511719 51.667969 L 142.050781 74.503906 C 142.136719 75.144531 142.222656 75.78125 142.308594 76.417969 L 149.472656 123.046875 C 149.640625 123.898438 149.785156 124.757812 149.964844 125.605469 C 149.972656 125.589844 149.980469 125.574219 149.988281 125.554688 C 163.324219 97.367188 175.449219 68.597656 188.019531 40.058594 C 191.242188 29.957031 188.234375 19.398438 181.039062 12.179688 C 176.039062 7.003906 168.800781 4.429688 161.675781 4.652344 Z M 161.675781 4.652344 "/>
<path style=" stroke:none;fill-rule:nonzero;fill:url(#linear3);" d="M 161.3125 5.871094 C 158.140625 5.96875 155.007812 6.628906 152.109375 7.886719 C 147.15625 10.035156 142.460938 14.042969 139.515625 18.929688 C 137.5625 22.636719 136.195312 26.738281 135.976562 31.164062 L 149.78125 31.164062 C 154.496094 32.464844 154 34.464844 150.015625 36.050781 C 144.34375 37.816406 140.894531 42.09375 138.042969 46.78125 C 142.207031 72.566406 144.738281 98.816406 149.859375 124.238281 C 162.914062 96.628906 174.804688 68.449219 187.113281 40.496094 C 190.269531 30.613281 187.328125 20.304688 180.289062 13.242188 C 175.394531 8.175781 168.285156 5.652344 161.3125 5.871094 Z M 135.976562 33.207031 C 135.992188 33.710938 136.003906 34.21875 136.054688 34.730469 L 136.027344 33.207031 Z M 135.976562 33.207031 "/>
<path style=" stroke:none;fill-rule:nonzero;fill:rgb(6.27451%,34.117647%,55.294118%);fill-opacity:1;" d="M 190.503906 53.671875 L 151.675781 139.527344 C 177.828125 122.574219 204.421875 103.878906 230.589844 85.976562 C 238.558594 79.332031 241.796875 69.347656 239.09375 59.257812 C 237.074219 51.699219 230.75 44.632812 223.253906 41.839844 C 210.941406 37.367188 197.058594 42.113281 190.503906 53.671875 "/>
<path style=" stroke:none;fill-rule:nonzero;fill:rgb(20.784314%,61.960784%,20.784314%);fill-opacity:1;" d="M 259.027344 114.332031 C 263.089844 122.621094 261.503906 134.007812 255.71875 141.070312 C 249.964844 147.847656 242.277344 151.519531 233.277344 151.28125 L 146.636719 151.351562 L 219.214844 102.34375 C 226.292969 97.910156 237.082031 97.101562 244.828125 100.683594 C 250.800781 102.9375 256.417969 108.640625 259.027344 114.332031 "/>
<path style=" stroke:none;fill-rule:nonzero;fill:url(#linear4);" d="M 190.503906 53.671875 L 151.675781 139.527344 C 177.828125 122.574219 204.421875 103.878906 230.589844 85.976562 C 238.558594 79.332031 241.796875 69.347656 239.09375 59.257812 C 237.074219 51.699219 230.75 44.632812 223.253906 41.839844 C 210.941406 37.367188 197.058594 42.113281 190.503906 53.671875 "/>
<path style=" stroke:none;fill-rule:nonzero;fill:url(#linear5);" d="M 6.949219 114.332031 C 2.886719 122.621094 4.472656 134.007812 10.261719 141.070312 C 16.011719 147.847656 23.699219 151.519531 32.699219 151.28125 L 119.339844 151.351562 L 46.761719 102.34375 C 39.683594 97.910156 28.898438 97.101562 21.148438 100.6875 C 15.179688 102.9375 9.558594 108.640625 6.949219 114.332031 "/>
<path style=" stroke:none;fill-rule:nonzero;fill:url(#linear6);" d="M 259.027344 114.332031 C 263.089844 122.621094 261.503906 134.007812 255.71875 141.070312 C 249.964844 147.847656 242.277344 151.519531 233.277344 151.28125 L 146.636719 151.351562 L 219.214844 102.34375 C 226.292969 97.910156 237.082031 97.101562 244.828125 100.683594 C 250.800781 102.9375 256.417969 108.640625 259.027344 114.332031 "/>
<path style=" stroke:none;fill-rule:nonzero;fill:url(#linear7);" d="M 75.472656 53.671875 L 114.300781 139.378906 C 87.734375 122.429688 60.53125 104.757812 34.800781 87 C 26.832031 80.359375 24.183594 69.347656 26.882812 59.257812 C 28.902344 51.699219 35.230469 44.632812 42.726562 41.839844 C 55.035156 37.367188 68.917969 42.113281 75.472656 53.671875 "/>
<path style=" stroke:none;fill-rule:nonzero;fill:url(#linear8);" d="M 126.585938 18 C 129.316406 23.183594 130.945312 29.105469 129.960938 35.617188 C 124.511719 65.40625 121.972656 96.058594 116.023438 125.605469 C 102.683594 97.394531 90.546875 68.605469 77.96875 40.046875 C 74.746094 29.945312 77.746094 19.410156 84.9375 12.191406 C 92.214844 4.664062 104.246094 2.613281 113.730469 6.722656 C 118.789062 8.917969 123.574219 13.007812 126.585938 18 "/>
<path style=" stroke:none;fill-rule:nonzero;fill:url(#linear9);" d="M 126.058594 18.925781 C 128.730469 24 130.324219 29.792969 129.359375 36.167969 C 124.027344 65.320312 121.546875 95.320312 115.71875 124.238281 C 102.664062 96.628906 90.785156 68.453125 78.476562 40.503906 C 75.324219 30.617188 78.261719 20.304688 85.296875 13.242188 C 92.417969 5.875 104.195312 3.867188 113.476562 7.886719 C 118.425781 10.035156 123.113281 14.039062 126.058594 18.925781 "/>
<path style=" stroke:none;fill-rule:nonzero;fill:url(#linear10);" d="M 161.3125 5.871094 C 158.140625 5.96875 155.007812 6.628906 152.109375 7.886719 C 147.15625 10.035156 142.460938 14.042969 139.515625 18.929688 C 137.5625 22.636719 136.195312 26.738281 135.976562 31.160156 L 149.78125 31.160156 C 154.496094 32.460938 154 34.464844 150.015625 36.050781 C 144.34375 37.816406 140.894531 42.09375 138.042969 46.78125 C 142.207031 72.566406 144.738281 98.816406 149.859375 124.238281 C 162.914062 96.628906 174.804688 68.449219 187.113281 40.496094 C 190.269531 30.613281 187.328125 20.304688 180.289062 13.238281 C 175.394531 8.175781 168.285156 5.652344 161.3125 5.871094 Z M 135.976562 33.203125 C 135.992188 33.710938 136.003906 34.21875 136.054688 34.730469 L 136.027344 33.203125 Z M 135.976562 33.203125 "/>
<path style=" stroke:none;fill-rule:nonzero;fill:url(#linear11);" d="M 126.585938 18 C 129.316406 23.183594 130.945312 29.105469 129.960938 35.617188 C 124.511719 65.40625 121.972656 96.058594 116.023438 125.605469 C 102.683594 97.394531 90.546875 68.605469 77.96875 40.046875 C 74.746094 29.945312 77.746094 19.410156 84.9375 12.191406 C 92.214844 4.664062 104.246094 2.613281 113.730469 6.722656 C 118.789062 8.917969 123.574219 13.007812 126.585938 18 "/>
<path style=" stroke:none;fill-rule:nonzero;fill:url(#linear12);" d="M 126.058594 18.925781 C 128.730469 24 130.324219 29.792969 129.359375 36.167969 C 124.027344 65.320312 121.546875 95.320312 115.71875 124.238281 C 102.664062 96.628906 90.785156 68.453125 78.476562 40.503906 C 75.324219 30.617188 78.261719 20.304688 85.296875 13.242188 C 92.417969 5.875 104.195312 3.867188 113.476562 7.886719 C 118.425781 10.035156 123.113281 14.039062 126.058594 18.925781 "/>
<path style=" stroke:none;fill-rule:nonzero;fill:url(#linear13);" d="M 102.367188 5.871094 C 96.023438 6.125 89.75 8.636719 85.300781 13.238281 C 79.453125 19.109375 77.480469 26.921875 78.785156 35.066406 C 89.480469 39.179688 106.421875 39.871094 129.097656 37.421875 L 129.148438 37.421875 C 129.222656 37.003906 129.28125 36.59375 129.355469 36.179688 C 130.320312 29.804688 128.722656 24.003906 126.046875 18.929688 C 123.101562 14.042969 118.433594 10.035156 113.480469 7.886719 C 110.003906 6.378906 106.171875 5.71875 102.367188 5.871094 Z M 102.367188 5.871094 "/>
<path style=" stroke:none;fill-rule:nonzero;fill:url(#linear14);" d="M 6.949219 114.332031 C 2.886719 122.621094 4.472656 134.007812 10.261719 141.070312 C 16.011719 147.847656 23.699219 151.519531 32.699219 151.28125 L 119.339844 151.351562 L 46.761719 102.34375 C 39.683594 97.910156 28.898438 97.101562 21.148438 100.6875 C 15.179688 102.9375 9.558594 108.640625 6.949219 114.332031 "/>
<path style=" stroke:none;fill-rule:nonzero;fill:url(#linear15);" d="M 259.015625 114.332031 C 263.078125 122.621094 261.492188 134.007812 255.703125 141.070312 C 249.953125 147.847656 242.265625 151.519531 233.265625 151.28125 L 146.625 151.351562 L 219.203125 102.34375 C 226.28125 97.910156 237.066406 97.101562 244.816406 100.6875 C 250.785156 102.9375 256.40625 108.640625 259.015625 114.332031 "/>
<path style=" stroke:none;fill-rule:nonzero;fill:url(#linear16);" d="M 190.503906 53.671875 L 151.675781 139.527344 C 177.828125 122.574219 204.421875 103.878906 230.589844 85.976562 C 238.558594 79.332031 241.796875 69.347656 239.09375 59.257812 C 237.074219 51.699219 230.75 44.632812 223.253906 41.839844 C 210.941406 37.367188 197.058594 42.113281 190.503906 53.671875 "/>
<path style=" stroke:none;fill-rule:nonzero;fill:url(#linear17);" d="M 52.089844 41.351562 C 48.316406 41.355469 42.242188 42.589844 38.972656 44.679688 C 31.710938 48.777344 25.800781 57.339844 28.5625 64.082031 L 27.328125 64.078125 C 38.542969 63.855469 55.699219 59.761719 63.960938 64.527344 C 82.558594 79.433594 95.84375 109.328125 108.132812 126.808594 L 74.503906 54.539062 C 69.40625 45.183594 60.988281 41.339844 52.390625 41.351562 Z M 52.089844 41.351562 "/>
<use xlink:href="#surface12" mask="url(#mask2)"/>
<use xlink:href="#surface15" mask="url(#mask3)"/>
<use xlink:href="#surface18" mask="url(#mask4)"/>
<path style=" stroke:none;fill-rule:nonzero;fill:url(#linear21);" d="M 52.027344 41.351562 C 49.164062 41.355469 42.9375 42.285156 39.667969 44.378906 C 33.574219 48.464844 31.425781 51.980469 29.277344 59.710938 C 28.890625 61.15625 28.648438 62.617188 28.5 64.082031 L 28.628906 63.929688 C 39.839844 63.703125 55.636719 59.761719 63.898438 64.527344 C 82.5 79.433594 95.78125 109.328125 108.070312 126.808594 L 74.441406 54.539062 C 69.34375 45.183594 60.625 41.339844 52.027344 41.351562 Z M 52.027344 41.351562 "/>
<path style=" stroke:none;fill-rule:nonzero;fill:url(#linear22);" d="M 52.089844 41.351562 C 49.222656 41.355469 42.996094 42.285156 39.730469 44.378906 C 33.636719 48.464844 31.484375 51.980469 29.335938 59.710938 C 28.953125 61.15625 28.710938 62.617188 28.5625 64.082031 L 28.691406 63.929688 C 39.902344 63.703125 55.699219 59.761719 63.960938 64.527344 C 82.558594 79.433594 95.84375 109.328125 108.132812 126.808594 L 74.503906 54.539062 C 69.40625 45.183594 60.683594 41.339844 52.089844 41.351562 Z M 52.089844 41.351562 "/>
<path style=" stroke:none;fill-rule:nonzero;fill:url(#linear23);" d="M 213.800781 41.351562 C 216.667969 41.355469 222.894531 42.285156 226.160156 44.378906 C 232.253906 48.464844 234.40625 51.980469 236.554688 59.710938 C 236.9375 61.15625 237.179688 62.617188 237.328125 64.082031 L 237.199219 63.929688 C 225.988281 63.703125 210.191406 59.761719 201.929688 64.527344 C 183.332031 79.433594 170.046875 109.328125 157.757812 126.808594 L 191.386719 54.539062 C 196.484375 45.183594 205.207031 41.339844 213.800781 41.351562 Z M 213.800781 41.351562 "/>
<path style=" stroke:none;fill-rule:nonzero;fill:url(#linear24);" d="M 213.816406 41.351562 C 216.679688 41.355469 222.90625 42.285156 226.171875 44.378906 C 232.269531 48.464844 234.417969 51.980469 236.566406 59.710938 C 236.949219 61.15625 237.195312 62.617188 237.339844 64.082031 L 237.210938 63.929688 C 226 63.703125 210.203125 59.761719 201.941406 64.527344 C 183.34375 79.433594 170.058594 109.328125 157.769531 126.808594 L 191.398438 54.539062 C 196.496094 45.183594 205.21875 41.339844 213.816406 41.351562 Z M 213.816406 41.351562 "/>
<use xlink:href="#surface21" mask="url(#mask5)"/>
<use xlink:href="#surface24" mask="url(#mask6)"/>
<path style=" stroke:none;fill-rule:nonzero;fill:url(#linear27);" d="M 213.78125 41.351562 C 217.554688 41.355469 223.628906 42.589844 226.894531 44.679688 C 234.160156 48.777344 240.070312 57.339844 237.308594 64.082031 L 238.539062 64.078125 C 227.328125 63.855469 210.167969 59.761719 201.910156 64.527344 C 183.308594 79.433594 170.027344 109.328125 157.734375 126.808594 L 191.363281 54.539062 C 196.464844 45.183594 204.882812 41.339844 213.476562 41.351562 Z M 213.78125 41.351562 "/>
<path style=" stroke:none;fill-rule:nonzero;fill:url(#linear28);" d="M 213.769531 41.351562 C 216.636719 41.355469 222.863281 42.285156 226.128906 44.378906 C 232.222656 48.464844 234.375 51.980469 236.523438 59.710938 C 236.90625 61.15625 237.148438 62.617188 237.296875 64.082031 L 237.167969 63.929688 C 225.957031 63.703125 210.160156 59.761719 201.898438 64.527344 C 183.300781 79.433594 170.015625 109.328125 157.726562 126.808594 L 191.355469 54.539062 C 196.453125 45.183594 205.175781 41.339844 213.769531 41.351562 Z M 213.769531 41.351562 "/>
<path style=" stroke:none;fill-rule:nonzero;fill:url(#linear29);" d="M 52.089844 41.351562 C 49.222656 41.355469 42.996094 42.285156 39.730469 44.378906 C 33.636719 48.464844 31.484375 51.980469 29.335938 59.710938 C 28.953125 61.15625 28.710938 62.617188 28.5625 64.082031 L 28.691406 63.929688 C 39.902344 63.703125 55.699219 59.761719 63.960938 64.527344 C 82.558594 79.433594 95.84375 109.328125 108.132812 126.808594 L 74.503906 54.539062 C 69.40625 45.183594 60.683594 41.339844 52.089844 41.351562 Z M 52.089844 41.351562 "/>
<path style=" stroke:none;fill-rule:nonzero;fill:rgb(0%,0%,0%);fill-opacity:1;" d="M 78.53125 216.238281 L 78.421875 216.238281 L 37.78125 167.414062 L 27.109375 167.414062 L 27.109375 237.796875 L 39.183594 237.796875 L 39.183594 188.96875 L 39.289062 188.96875 L 79.933594 237.796875 L 90.601562 237.796875 L 90.601562 167.414062 L 78.53125 167.414062 Z M 78.53125 216.238281 "/>
<path style=" stroke:none;fill-rule:nonzero;fill:rgb(0%,0%,0%);fill-opacity:1;" d="M 142.246094 237.792969 C 152.378906 237.792969 157.015625 234.988281 160.460938 231.757812 C 165.207031 227.230469 166.929688 221.949219 166.929688 216.777344 C 166.929688 208.152344 162.296875 200.929688 154.097656 198.992188 C 159.171875 196.945312 163.050781 191.121094 163.050781 184.65625 C 163.050781 180.347656 161.324219 176.574219 158.308594 173.554688 C 154.855469 170.109375 149.355469 167.410156 141.382812 167.410156 L 98.796875 167.410156 L 98.796875 237.792969 Z M 142.675781 206.210938 C 146.234375 206.210938 149.355469 207.71875 151.515625 209.984375 C 153.238281 211.816406 154.316406 214.085938 154.316406 216.671875 C 154.316406 219.257812 153.238281 221.949219 151.40625 223.785156 C 149.25 225.941406 146.015625 227.023438 142.675781 227.023438 L 110.871094 227.023438 L 110.871094 206.210938 Z M 140.089844 178.1875 C 143.429688 178.1875 146.015625 178.945312 147.960938 180.882812 C 149.46875 182.394531 150.433594 184.550781 150.433594 186.917969 C 150.433594 189.507812 149.355469 192.09375 147.523438 193.929688 C 145.585938 195.867188 143 196.515625 140.089844 196.515625 L 110.871094 196.515625 L 110.871094 178.1875 Z M 140.089844 178.1875 "/>
<path style=" stroke:none;fill-rule:nonzero;fill:rgb(0%,0%,0%);fill-opacity:1;" d="M 235.496094 217.316406 C 229.457031 223.785156 220.078125 229.167969 209.082031 229.167969 C 193.34375 229.167969 183.101562 217.316406 183.101562 202.65625 C 183.101562 188.109375 193.125 176.03125 208.542969 176.03125 C 217.167969 176.03125 226.871094 179.804688 233.125 185.734375 L 241.316406 177.652344 C 233.445312 170.320312 221.160156 165.257812 208.328125 165.257812 C 185.796875 165.257812 170.382812 182.179688 170.382812 202.546875 C 170.382812 223.242188 185.691406 239.949219 208.867188 239.949219 C 224.175781 239.949219 236.03125 232.835938 243.578125 225.289062 Z M 235.496094 217.316406 "/>
<path style="fill:none;stroke-width:0.841049;stroke-linecap:butt;stroke-linejoin:miter;stroke:rgb(61.176471%,66.666667%,74.117647%);stroke-opacity:1;stroke-miterlimit:4;" d="M 389.735653 3.366742 C 388.751748 3.381423 387.782527 3.425466 386.798622 3.469508 C 324.68043 2.720778 271.314588 61.576871 274.941821 123.119586 C 275.808245 140.340388 278.27535 155.300318 294.810831 192.545992 C 296.029699 195.291338 290.464026 185.645926 291.491987 188.082971 C 290.36123 185.70465 291.800375 189.095959 290.654933 186.717639 C 270.301313 155.902239 234.087728 137.139932 197.404219 136.993122 C 196.214722 136.978441 195.010539 137.007803 193.835727 137.037165 C 130.630834 136.06822 76.839122 197.919235 84.078902 260.416214 C 86.355101 293.521849 103.786376 325.408961 131.012647 343.833605 L 157.974586 362.023353 C 144.067747 357.633737 129.36791 355.622441 114.77087 356.077552 C 51.213532 357.075859 -5.045284 419.660924 5.175581 483.288339 C 11.666418 540.118455 62.447674 581.37204 123.714127 581.37204 L 885.946933 582.164814 C 960.371283 582.164814 996.423331 513.736714 996.423331 470.603963 C 996.467386 465.289444 996.085572 459.945563 995.248519 454.587002 C 987.700351 396.582406 930.956924 351.247506 872.715612 355.974785 C 859.866104 356.239042 843.5509 359.204603 835.723714 361.97931 C 835.723714 361.97931 861.319934 344.626379 872.524705 336.786729 C 885.124565 328.491969 894.464322 315.000139 900.632085 304.635359 C 910.089323 288.633079 915.141015 270.061625 915.743107 251.372723 C 916.682956 221.922655 906.535516 192.134924 885.021769 171.47877 C 864.066057 149.692179 834.225829 136.156306 803.798194 136.993122 C 764.089543 136.259073 724.60117 158.324602 704.497197 192.032158 C 709.313927 180.727794 715.158618 167.867246 719.578848 156.401392 C 723.059229 147.666203 724.557115 141.26529 725.702557 132.133714 C 733.676594 71.295687 685.391815 8.284874 623.082715 3.998024 C 618.001653 3.440147 612.89122 3.381423 607.780787 3.528232 C 557.146384 3.748447 512.562263 43.254994 500.079884 91.100344 C 487.788412 42.080515 441.500813 2.45652 389.735653 3.366742 Z M 389.735653 3.366742 " transform="matrix(0.266,0,0,0.266075,-0.056392,0.135443)"/>
<use xlink:href="#surface27" mask="url(#mask7)"/>
<path style="fill:none;stroke-width:0.841049;stroke-linecap:butt;stroke-linejoin:miter;stroke:rgb(61.176471%,66.666667%,74.117647%);stroke-opacity:1;stroke-miterlimit:4;" d="M 388.164341 0.0635186 C 320.77418 -1.654157 263.134959 65.085628 272.166327 131.517112 C 273.473306 145.023624 277.24739 157.85481 282.034749 170.480463 C 244.117687 128.801129 173.496792 120.315516 128.413376 155.77011 C 91.935458 182.401427 72.389521 230.540397 82.654442 275.053162 C 88.910317 308.555184 111.114267 337.696951 140.690163 354.447962 C 98.778739 346.241288 54.37084 363.31528 27.834771 396.288786 C 3.046234 424.769909 -5.941079 466.140941 5.645506 502.314903 C 20.154436 553.316666 73.314686 586.392939 125.388234 584.748668 C 381.26232 584.866116 637.136406 585.570804 893.010492 585.321227 C 939.621163 583.809085 979.711628 548.193 993.662522 504.898758 C 1010.682613 458.682998 990.842973 404.466098 951.589562 376.410724 C 923.84931 354.829667 886.872098 348.091092 852.641009 354.565409 C 871.129615 342.541678 890.117517 330.150921 901.04327 310.449031 C 930.810072 265.216898 923.570293 197.889873 881.130204 163.066562 C 844.329213 128.507509 784.501905 124.235341 741.885594 150.558358 C 733.103873 155.77011 724.997669 162.097617 717.963482 169.26194 C 737.289141 131.752008 732.32556 84.420493 707.654505 50.507404 C 685.274334 17.445812 645.418831 -2.857999 605.254941 0.210328 C 558.071548 1.516937 515.895792 36.120033 500.123939 79.751938 C 483.896846 33.727031 437.829525 -1.771605 388.164341 0.0635186 Z M 388.164341 0.0635186 " transform="matrix(0.266,0,0,0.266075,-0.056392,0.135443)"/>
</g>
</svg>
